<svg width="26" height="28" viewBox="0 0 26 28" fill="none" xmlns="http://www.w3.org/2000/svg">
<path d="M12.6859 19.217C12.4414 19.2147 12.2073 19.1077 12.033 18.9187L2.79853 8.73688C2.63032 8.54484 2.53724 8.28765 2.53934 8.02069C2.54145 7.75372 2.63856 7.49835 2.80978 7.30957C2.98099 7.12079 3.2126 7.01371 3.45473 7.01139C3.69685 7.00907 3.93012 7.1117 4.10428 7.29717L12.6859 16.7591L21.2674 7.29717C21.3526 7.19992 21.4545 7.12235 21.5672 7.06899C21.6799 7.01563 21.801 6.98754 21.9236 6.98637C22.0463 6.98519 22.1679 7.01095 22.2813 7.06215C22.3948 7.11334 22.4979 7.18895 22.5846 7.28455C22.6713 7.38015 22.7399 7.49383 22.7863 7.61896C22.8328 7.74409 22.8561 7.87816 22.8551 8.01336C22.854 8.14855 22.8285 8.28216 22.7801 8.40638C22.7317 8.5306 22.6614 8.64295 22.5732 8.73688L13.3387 18.9187C13.1644 19.1077 12.9303 19.2147 12.6859 19.217Z" fill="#795BF1"/>
</svg>
