<svg width="20" height="20" viewBox="0 0 20 20" fill="none" xmlns="http://www.w3.org/2000/svg">
<path d="M13.7264 10.0089C13.7248 10.2015 13.6484 10.3858 13.5134 10.5231L6.24063 17.7958C6.10346 17.9283 5.91975 18.0016 5.72906 18C5.53837 17.9983 5.35596 17.9218 5.22112 17.787C5.08628 17.6521 5.00979 17.4697 5.00814 17.279C5.00648 17.0884 5.07978 16.9046 5.21226 16.7675L11.9708 10.0089L5.21226 3.25039C5.1428 3.1833 5.08739 3.10305 5.04928 3.01432C5.01116 2.92559 4.9911 2.83016 4.99026 2.73359C4.98942 2.63703 5.00782 2.54126 5.04439 2.45188C5.08096 2.3625 5.13496 2.2813 5.20325 2.21301C5.27153 2.14473 5.35273 2.09072 5.44211 2.05416C5.53149 2.01759 5.62726 1.99919 5.72383 2.00003C5.82039 2.00087 5.91583 2.02093 6.00456 2.05905C6.09329 2.09716 6.17354 2.15257 6.24063 2.22203L13.5134 9.49475C13.6484 9.63204 13.7248 9.8164 13.7264 10.0089Z" fill="#795BF1"/>
</svg>
