<svg width="28" height="28" viewBox="0 0 28 28" fill="none" xmlns="http://www.w3.org/2000/svg">
<path d="M17.1656 3.83771C17.0572 3.72836 16.9282 3.64157 16.786 3.58234C16.6438 3.52311 16.4913 3.49261 16.3373 3.49261C16.1833 3.49261 16.0308 3.52311 15.8886 3.58234C15.7465 3.64157 15.6174 3.72836 15.509 3.83771L6.17565 13.171C6.06752 13.2801 5.98197 13.4093 5.92391 13.5515C5.86585 13.6936 5.83642 13.8458 5.83731 13.9994C5.83642 14.1529 5.86585 14.3051 5.92391 14.4473C5.98197 14.5894 6.06752 14.7187 6.17565 14.8277L15.509 24.161C15.6178 24.2698 15.7469 24.3561 15.889 24.415C16.0311 24.4739 16.1835 24.5042 16.3373 24.5042C16.4911 24.5042 16.6435 24.4739 16.7856 24.415C16.9277 24.3561 17.0569 24.2698 17.1656 24.161C17.3853 23.9414 17.5088 23.6434 17.5088 23.3327C17.5088 23.022 17.3853 22.7241 17.1656 22.5044L8.64898 13.9877L17.1656 5.49438C17.275 5.38592 17.3618 5.25689 17.421 5.11472C17.4802 4.97255 17.5107 4.82006 17.5107 4.66604C17.5107 4.51203 17.4802 4.35954 17.421 4.21737C17.3618 4.0752 17.275 3.94617 17.1656 3.83771Z" fill="#795BF1"/>
</svg>
