<svg width="26" height="20" viewBox="0 0 26 20" fill="none" xmlns="http://www.w3.org/2000/svg">
<g opacity="0.3">
<path d="M21.3289 18.7141L21.3289 18.7141L21.321 18.7138C20.1101 18.6755 19.2245 18.3599 18.5657 17.8946C17.9043 17.4273 17.4226 16.7743 17.0782 15.9852C16.3834 14.3931 16.286 12.3387 16.3722 10.4878C16.4493 10.0419 16.489 9.55315 16.5218 9.0654C16.5304 8.93746 16.5386 8.80951 16.5467 8.68125C16.5717 8.28925 16.5968 7.89434 16.636 7.48782C16.7394 6.4123 16.9332 5.36353 17.4109 4.44322C17.8777 3.54408 18.6344 2.73143 19.9391 2.15181C21.1413 1.61774 22.8334 1.27134 25.2258 1.2763C25.2138 1.48585 25.1957 1.73394 25.1685 2.01197C25.0803 2.91301 24.8978 4.11299 24.5232 5.32992C23.7627 7.80127 22.3022 10.0933 19.4837 10.4657L17.1496 10.7741L19.232 11.8726C20.3622 12.4688 21.0692 13.0709 21.5183 13.6505C21.9623 14.2237 22.1804 14.8086 22.2839 15.4168C22.3901 16.0414 22.3761 16.6873 22.347 17.4022C22.3446 17.461 22.3421 17.5204 22.3396 17.5804C22.3238 17.9555 22.3071 18.3522 22.3119 18.7556L21.3289 18.7141Z" stroke="black" stroke-width="1.5"/>
<path d="M9.33615 6.93064L9.33608 6.93064L9.3371 6.9434C9.36207 7.2566 9.38987 7.57823 9.41819 7.90601C9.60659 10.0863 9.81856 12.5393 9.38176 14.601C9.135 15.7657 8.69276 16.7326 7.97698 17.431C7.27287 18.118 6.23526 18.6125 4.66153 18.7141L3.68654 18.7554C3.69135 18.3525 3.67465 17.9561 3.65886 17.5814C3.65631 17.5208 3.65378 17.4608 3.65137 17.4014C3.62235 16.6864 3.60847 16.0403 3.71484 15.4158C3.81843 14.8076 4.03663 14.2228 4.48068 13.65C4.9297 13.0708 5.63656 12.4693 6.76644 11.874L8.85114 10.7756L6.51508 10.4669C3.69665 10.0945 2.23623 7.80229 1.47573 5.3306C1.10125 4.11351 0.918708 2.91337 0.830588 2.01222C0.801511 1.71487 0.782876 1.45178 0.770953 1.23343C4.90004 1.00835 6.98225 2.43714 8.06102 3.82929C8.64768 4.58636 8.96896 5.37292 9.14295 5.97316C9.22964 6.2722 9.27865 6.5212 9.30569 6.69145C9.31919 6.77643 9.32714 6.84134 9.33156 6.88253C9.33376 6.90311 9.33509 6.91772 9.33577 6.9259L9.33615 6.93064ZM0.750089 0.547503L0.750089 0.547518L0.750089 0.547503ZM9.33636 6.93328C9.33639 6.93369 9.33639 6.93367 9.33636 6.93323L9.33636 6.93328Z" stroke="black" stroke-width="1.5"/>
<path d="M13.4462 17.6846L13.4313 17.9499L12.5907 18.2633L12.5846 18.1585C12.847 18.027 13.1426 17.8683 13.4462 17.6846Z" stroke="black" stroke-width="1.5"/>
<path d="M12.4406 15.7169L12.4376 15.6646C12.7747 15.5018 13.1814 15.2878 13.5961 15.0276L13.5812 15.2904L12.4406 15.7169Z" stroke="black" stroke-width="1.5"/>
<path d="M12.04 12.1712L12.1033 12.3395L12.1033 12.3395L12.04 12.1712ZM12.2694 12.7811L12.2694 12.7811L12.304 12.8732L12.3346 12.8617L12.364 12.8476C12.7498 12.6628 13.255 12.4006 13.7627 12.069L13.746 12.3642L12.2772 12.913L12.2755 12.8839L12.2806 12.882L12.2979 12.8755L12.3025 12.8738L12.3036 12.8733L12.3039 12.8732L12.304 12.8732L12.304 12.8732L12.2694 12.7811Z" stroke="black" stroke-width="1.5"/>
<path d="M12.1229 10.2561L12.1213 10.2284C12.7215 9.98771 13.3432 9.67468 13.9217 9.27597L13.904 9.59063L12.1229 10.2561Z" stroke="black" stroke-width="1.5"/>
<path d="M14.3871 2.70828L14.4069 2.70339L14.4263 2.69744C14.5896 2.64747 14.6859 2.63587 14.7377 2.63586C14.7449 2.65786 14.7535 2.69002 14.7612 2.73513C14.7821 2.8574 14.7895 3.03003 14.7753 3.26128C14.7468 3.72683 14.6399 4.31462 14.4968 4.99652C14.4519 5.21052 14.4031 5.43467 14.3532 5.6644C14.2788 6.00703 14.2016 6.36208 14.1303 6.71443L11.9931 7.51311C11.9608 7.1267 11.8799 6.72736 11.7919 6.35353C11.7198 6.04738 11.636 5.73196 11.5549 5.4269L11.5541 5.42389C11.4722 5.11599 11.3929 4.81796 11.3242 4.52841C11.1826 3.93177 11.1061 3.44921 11.1289 3.09256C11.1465 2.81666 11.2127 2.71787 11.2719 2.6719C11.4396 2.62251 11.5325 2.64578 11.8381 2.7223C11.8915 2.73568 11.9515 2.7507 12.0195 2.76724C12.5574 2.89806 13.2433 2.99158 14.3871 2.70828ZM14.7891 2.64412C14.7881 2.6453 14.78 2.64428 14.7678 2.6375C14.784 2.63955 14.7901 2.64294 14.7891 2.64412Z" stroke="black" stroke-width="1.5"/>
</g>
</svg>
