<svg width="28" height="28" viewBox="0 0 28 28" fill="none" xmlns="http://www.w3.org/2000/svg">
<path d="M13.9999 13.9997C14.6443 13.9997 15.1666 13.4774 15.1666 12.833C15.1666 12.1887 14.6443 11.6664 13.9999 11.6664C13.3556 11.6664 12.8333 12.1887 12.8333 12.833C12.8333 13.4774 13.3556 13.9997 13.9999 13.9997Z" fill="#464255"/>
<path d="M9.33341 13.9997C9.97775 13.9997 10.5001 13.4774 10.5001 12.833C10.5001 12.1887 9.97775 11.6664 9.33341 11.6664C8.68908 11.6664 8.16675 12.1887 8.16675 12.833C8.16675 13.4774 8.68908 13.9997 9.33341 13.9997Z" fill="#464255"/>
<path d="M18.6667 13.9997C19.311 13.9997 19.8333 13.4774 19.8333 12.833C19.8333 12.1887 19.311 11.6664 18.6667 11.6664C18.0223 11.6664 17.5 12.1887 17.5 12.833C17.5 13.4774 18.0223 13.9997 18.6667 13.9997Z" fill="#464255"/>
<path d="M3.55834 25.515C3.80252 25.6157 4.06419 25.6673 4.32834 25.6667C4.58884 25.668 4.84696 25.617 5.08743 25.5168C5.3279 25.4166 5.54583 25.2692 5.72834 25.0833L8.64501 22.1667H19.8333C21.3804 22.1667 22.8642 21.5521 23.9581 20.4581C25.0521 19.3642 25.6667 17.8804 25.6667 16.3333V9.33333C25.6667 7.78624 25.0521 6.30251 23.9581 5.20854C22.8642 4.11458 21.3804 3.5 19.8333 3.5H8.16667C6.61958 3.5 5.13584 4.11458 4.04188 5.20854C2.94792 6.30251 2.33334 7.78624 2.33334 9.33333V23.6717C2.32964 24.0662 2.44441 24.4528 2.6628 24.7814C2.88118 25.1101 3.19315 25.3656 3.55834 25.515ZM4.66667 9.33333C4.66667 8.40508 5.03542 7.51484 5.6918 6.85846C6.34818 6.20208 7.23841 5.83333 8.16667 5.83333H19.8333C20.7616 5.83333 21.6518 6.20208 22.3082 6.85846C22.9646 7.51484 23.3333 8.40508 23.3333 9.33333V16.3333C23.3333 17.2616 22.9646 18.1518 22.3082 18.8082C21.6518 19.4646 20.7616 19.8333 19.8333 19.8333H8.16667C8.01313 19.8324 7.86092 19.8619 7.71878 19.9199C7.57664 19.978 7.44735 20.0635 7.33834 20.1717L4.66667 22.855V9.33333Z" fill="#464255"/>
</svg>
