<svg width="28" height="28" viewBox="0 0 28 28" fill="none" xmlns="http://www.w3.org/2000/svg">
<path d="M22.232 2.24001H5.76799C3.76879 2.24001 2.23999 3.76881 2.23999 5.76801V22.232C2.23999 24.2312 3.76879 25.76 5.76799 25.76H22.232C24.2312 25.76 25.76 24.2312 25.76 22.232V5.76801C25.76 3.76881 24.2312 2.24001 22.232 2.24001ZM23.408 22.232C23.408 22.9376 22.9376 23.408 22.232 23.408H5.76799C5.06239 23.408 4.59199 22.9376 4.59199 22.232V5.76801C4.59199 5.06241 5.06239 4.59201 5.76799 4.59201H22.232C22.9376 4.59201 23.408 5.06241 23.408 5.76801V22.232Z" fill="#795BF1"/>
<path d="M11.5733 15.7038L8.41864 12.606L6.71997 14.2741L11.5733 19.04L21.28 9.5081L19.5813 7.84001L11.5733 15.7038Z" fill="#795BF1"/>
</svg>
