<svg width="26" height="24" viewBox="0 0 26 24" fill="none" xmlns="http://www.w3.org/2000/svg">
<g opacity="0.3">
<path d="M26.0002 0.489502H15.0315C14.2317 0.489502 13.5099 0.827959 13.0002 1.36853C12.4906 0.827959 11.7688 0.489502 10.969 0.489502H0.000244141V18.8046H5.83872C7.03979 21.5707 9.79757 23.5104 13.0002 23.5104C16.2029 23.5104 18.9607 21.5707 20.1618 18.8046H26.0002V0.489502ZM24.4768 17.2812H20.644C20.7486 16.7726 20.8036 16.2461 20.8036 15.707C20.8036 15.0957 20.7328 14.5008 20.5993 13.9296H22.3694V12.4062H20.07C19.7771 11.7812 19.4037 11.2013 18.9632 10.6796H22.3694V9.15618H17.2358C16.2162 8.49466 15.0333 8.06459 13.762 7.94084V3.28247C13.762 2.58245 14.3315 2.01294 15.0315 2.01294H24.4768V17.2812ZM13.0002 21.9869C9.53747 21.9869 6.72028 19.1697 6.72028 15.707C6.72028 12.2442 9.53747 9.427 13.0002 9.427C16.463 9.427 19.2802 12.2442 19.2802 15.707C19.2802 19.1697 16.463 21.9869 13.0002 21.9869ZM1.52368 2.01294H10.969C11.669 2.01294 12.2385 2.58245 12.2385 3.28247V7.94079C10.9672 8.06454 9.78427 8.49461 8.76463 9.15613H3.6311V10.6796H7.03726C6.59678 11.2012 6.22338 11.7812 5.93043 12.4061H3.6311V13.9296H5.40124C5.26768 14.5007 5.19684 15.0957 5.19684 15.7069C5.19684 16.246 5.25184 16.7725 5.35645 17.2811H1.52368V2.01294Z" fill="black"/>
<path d="M3.6311 5.90625H10.1311V7.42969H3.6311V5.90625Z" fill="black"/>
<path d="M15.8694 5.90625H22.3694V7.42969H15.8694V5.90625Z" fill="black"/>
<path d="M16.6309 16.3666V15.0473L11.3547 12.0011L10.2122 12.6607V18.7531L11.3547 19.4128L16.6309 16.3666ZM11.7356 13.9801L14.7266 15.707L11.7356 17.4338V13.9801Z" fill="black"/>
</g>
</svg>
