<svg width="74" height="75" viewBox="0 0 74 75" fill="none" xmlns="http://www.w3.org/2000/svg">
<rect width="74" height="74.7789" rx="18" fill="white"/>
<path d="M32.792 39.2731C32.6539 39.2731 29.7556 39.274 28.4189 39.2727C27.7307 39.2722 27.4852 39.0249 27.4852 38.3324C27.4843 36.5535 27.4839 34.7745 27.4852 32.9956C27.4856 32.3119 27.7452 32.0509 28.4246 32.0505C29.7613 32.0496 32.6438 32.0501 32.792 32.0501C32.792 31.9282 32.7916 29.3599 32.792 28.1772C32.7929 26.4286 33.1049 24.7549 33.9932 23.2223C34.9027 21.6537 36.2262 20.5793 37.9224 19.958C39.0088 19.5598 40.1365 19.4009 41.2893 19.4001C42.7316 19.3992 44.174 19.4005 45.6167 19.4031C46.2367 19.404 46.5117 19.6781 46.513 20.3025C46.5156 21.9758 46.5156 23.6491 46.513 25.322C46.5121 25.953 46.2486 26.2064 45.6145 26.2135C44.4322 26.2262 43.2491 26.2183 42.0681 26.2658C40.8753 26.2658 40.2478 26.8484 40.2478 28.083C40.2192 29.3889 40.236 30.6962 40.236 32.0496C40.3477 32.0496 43.7423 32.0492 45.329 32.0496C46.0497 32.0496 46.2961 32.2973 46.2961 33.022C46.2961 34.7913 46.2956 36.5609 46.2943 38.3302C46.2939 39.0443 46.0624 39.2722 45.3373 39.2727C43.7507 39.2735 40.3693 39.2731 40.2214 39.2731V53.5929C40.2214 54.3563 39.9812 54.5996 39.2279 54.5996C37.3914 54.5996 35.5544 54.6001 33.7178 54.5996C33.0521 54.5996 32.7925 54.3409 32.7925 53.6752C32.792 49.0116 32.792 39.4368 32.792 39.2731Z" fill="#3D6AD6"/>
</svg>
