<svg width="80" height="80" viewBox="0 0 80 80" fill="none" xmlns="http://www.w3.org/2000/svg">
<path d="M71.6667 30H55C54.08 30 53.3333 30.7467 53.3333 31.6667C53.3333 32.5867 54.08 33.3334 55 33.3334H71.6667C74.4234 33.3334 76.6667 35.5767 76.6667 38.3334V71.6667C76.6667 74.4234 74.4234 76.6667 71.6667 76.6667H38.3333C35.5766 76.6667 33.3333 74.4234 33.3333 71.6667V58.3334C33.3333 57.4134 32.5866 56.6667 31.6666 56.6667C30.7466 56.6667 30 57.4133 30 58.3333V71.6666C30 76.26 33.74 80 38.3333 80H71.6666C76.26 80 80 76.26 80 71.6667V38.3333C80 33.74 76.26 30 71.6667 30Z" fill="#795BF1"/>
<path d="M25 46.6667H23.3333C22.4133 46.6667 21.6666 47.4134 21.6666 48.3334C21.6666 49.2534 22.4133 50 23.3333 50H25C25.92 50 26.6667 49.2533 26.6667 48.3333C26.6667 47.4133 25.92 46.6667 25 46.6667Z" fill="#795BF1"/>
<path d="M9.80351 0H8.33351C7.53695 0 6.75023 0.113281 5.99351 0.333281C5.11023 0.593281 4.60351 1.52 4.86023 2.40328C5.07351 3.13 5.74023 3.6 6.46023 3.6C6.61695 3.6 6.77351 3.58 6.93023 3.53328C7.38351 3.4 7.85351 3.33328 8.33351 3.33328H9.80351C10.7268 3.33328 11.4702 2.58656 11.4702 1.66656C11.4702 0.746563 10.7235 0 9.80351 0Z" fill="#795BF1"/>
<path d="M3.33328 40.19V36.82C3.33328 35.9 2.58656 35.1533 1.66656 35.1533C0.746563 35.1533 0 35.9 0 36.82V40.19C0 41.11 0.746719 41.8567 1.66672 41.8567C2.58672 41.8567 3.33328 41.11 3.33328 40.19Z" fill="#795BF1"/>
<path d="M1.66672 31.7467C2.58672 31.7467 3.33344 31 3.33344 30.08V26.71C3.33344 25.79 2.58672 25.0433 1.66672 25.0433C0.746719 25.0433 0 25.79 0 26.71V30.08C0 31 0.746719 31.7467 1.66672 31.7467Z" fill="#795BF1"/>
<path d="M1.66672 11.53C2.58672 11.53 3.33344 10.7833 3.33344 9.86329V8.33329C3.33344 7.87001 3.39672 7.41329 3.52016 6.97329C3.77016 6.08657 3.25688 5.16657 2.37016 4.91657C1.49016 4.65328 0.563438 5.17657 0.313438 6.06657C0.106719 6.80329 0 7.56672 0 8.33329V9.86329C0 10.7833 0.746719 11.53 1.66672 11.53Z" fill="#795BF1"/>
<path d="M1.66672 21.64C2.58672 21.64 3.33344 20.8933 3.33344 19.9733V16.6033C3.33344 15.6833 2.58672 14.9366 1.66672 14.9366C0.746719 14.9366 0 15.6833 0 16.6033V19.9733C0 20.8933 0.746719 21.64 1.66672 21.64Z" fill="#795BF1"/>
<path d="M6.96669 46.4767C6.15997 46.2467 5.41341 45.81 4.81341 45.2134C4.16341 44.5634 3.10669 44.5702 2.45669 45.2202C1.80669 45.8734 1.80997 46.9302 2.46341 47.5769C3.46341 48.5736 4.70669 49.3002 6.05669 49.6836C6.20997 49.7269 6.36341 49.7469 6.51341 49.7469C7.23669 49.7469 7.90669 49.2702 8.11341 48.5369C8.36669 47.65 7.85325 46.7267 6.96669 46.4767Z" fill="#795BF1"/>
<path d="M48.0629 8.12C48.2162 8.12 48.3729 8.1 48.5296 8.05C49.4129 7.79 49.9229 6.86672 49.6629 5.98328C49.2696 4.63656 48.5296 3.4 47.5262 2.40656C46.8729 1.75984 45.8162 1.76328 45.1695 2.41984C44.5228 3.07313 44.5295 4.12984 45.1828 4.77656C45.7828 5.37656 46.2295 6.11656 46.4628 6.91984C46.6764 7.64672 47.3396 8.12 48.0629 8.12Z" fill="#795BF1"/>
<path d="M40.1302 0H36.7602C35.8402 0 35.0935 0.746719 35.0935 1.66672C35.0935 2.58672 35.8402 3.33344 36.7602 3.33344H40.1302C41.0502 3.33344 41.797 2.58672 41.797 1.66672C41.797 0.746719 41.0502 0 40.1302 0Z" fill="#795BF1"/>
<path d="M16.5964 46.6667H13.2264C12.3064 46.6667 11.5597 47.4134 11.5597 48.3334C11.5597 49.2534 12.3064 50 13.2264 50H16.5964C17.5164 50 18.2631 49.2533 18.2631 48.3333C18.2631 47.4133 17.5164 46.6667 16.5964 46.6667Z" fill="#795BF1"/>
<path d="M48.3332 11.5C47.4132 11.5 46.6665 12.2467 46.6665 13.1667V16.5367C46.6665 17.4567 47.4132 18.2034 48.3332 18.2034C49.2532 18.2034 49.9999 17.4567 49.9999 16.5367V13.1667C49.9999 12.2433 49.2532 11.5 48.3332 11.5Z" fill="#795BF1"/>
<path d="M30.0232 0H26.6532C25.7299 0 24.9865 0.746719 24.9865 1.66672C24.9865 2.58672 25.7332 3.33344 26.6532 3.33344H30.0199C30.9432 3.33344 31.6899 2.58672 31.6899 1.66672C31.6899 0.746719 30.9432 0 30.0232 0Z" fill="#795BF1"/>
<path d="M19.9133 0H16.5433C15.6233 0 14.8766 0.746719 14.8766 1.66672C14.8766 2.58672 15.6233 3.33344 16.5433 3.33344H19.9133C20.8333 3.33344 21.58 2.58672 21.58 1.66672C21.58 0.746719 20.8333 0 19.9133 0Z" fill="#795BF1"/>
<path d="M48.3332 21.6667C47.4132 21.6667 46.6665 22.4135 46.6665 23.3335V25C46.6665 25.92 47.4132 26.6667 48.3332 26.6667C49.2532 26.6667 49.9999 25.92 49.9999 25V23.3333C49.9999 22.4133 49.2532 21.6667 48.3332 21.6667Z" fill="#795BF1"/>
<path d="M54.6797 28.9867L49.513 23.82C47.4863 21.7933 44.183 21.7933 42.1563 23.82C41.5495 24.4267 41.123 25.15 40.8795 25.9167C39.0628 25.2834 36.8895 25.7534 35.4895 27.1534C34.7263 27.9167 34.2528 28.8602 34.0628 29.8467C32.4728 29.6234 30.8128 30.1634 29.6561 31.32C28.5494 32.4267 28.0461 33.91 28.1461 35.36C27.0228 35.5133 25.9861 36.0233 25.1728 36.8367C24.1895 37.82 23.6495 39.1267 23.6495 40.5167C23.6495 41.9067 24.1895 43.2167 25.1728 44.1967L26.6661 45.69V51.6667C26.6664 56.26 30.4064 60 34.9997 60H41.833C51.8497 60 59.9997 51.85 59.9997 41.8333C59.9997 36.9833 58.1097 32.42 54.6797 28.9867ZM41.833 56.6667H34.9997C32.243 56.6667 29.9997 54.4234 29.9997 51.6667V49.0234L33.823 52.8467C34.473 53.4967 35.5297 53.4967 36.1797 52.8467C36.503 52.52 36.6664 52.0934 36.6664 51.6667C36.6664 51.24 36.5031 50.8134 36.1797 50.4867L27.5297 41.8367C27.1764 41.4867 26.983 41.0134 26.983 40.5167C26.983 40.02 27.1763 39.55 27.5297 39.1967C28.2364 38.49 29.4664 38.49 30.173 39.1967L33.823 42.8467C34.473 43.4967 35.5297 43.4967 36.1797 42.8467C36.503 42.52 36.6664 42.0934 36.6664 41.6667C36.6664 41.24 36.5031 40.8134 36.1797 40.49L32.013 36.3233C31.283 35.5933 31.283 34.41 32.013 33.68C32.7197 32.9733 33.9497 32.9733 34.6563 33.68L37.1563 36.18C37.8063 36.83 38.863 36.83 39.513 36.18C39.8363 35.8533 39.9997 35.4267 39.9997 35C39.9997 34.5733 39.8364 34.1467 39.513 33.8233L37.8463 32.1566C37.1163 31.4266 37.1163 30.2433 37.8463 29.5133C38.553 28.8066 39.783 28.8066 40.4895 29.5133L42.1563 31.18C42.8063 31.83 43.863 31.83 44.513 31.18C44.8363 30.8533 44.9997 30.4267 44.9997 30C44.9997 29.5733 44.8364 29.1467 44.5097 28.82C44.1564 28.47 43.963 28 43.963 27.5C43.963 27 44.1597 26.53 44.513 26.18C45.243 25.45 46.4263 25.45 47.1563 26.18L52.323 31.3467C55.123 34.1467 56.6663 37.8734 56.6663 41.8334C56.6664 50.0133 50.013 56.6667 41.833 56.6667Z" fill="#795BF1"/>
</svg>
