<svg width="74" height="74" viewBox="0 0 74 74" fill="none" xmlns="http://www.w3.org/2000/svg">
<rect width="74" height="74" rx="18" fill="white"/>
<path d="M55.5973 33.3821H39.2262C38.5043 33.3821 37.9199 33.9665 37.9199 34.6883V39.9219C37.9199 40.6438 38.5043 41.2282 39.2262 41.2282H48.4473C47.4418 43.8493 45.5512 46.0407 43.1535 47.4329L47.0809 54.2391C53.3801 50.5954 57.1098 44.193 57.1098 37.0344C57.1098 36.0118 57.0324 35.2813 56.8863 34.4649C56.766 33.8375 56.2246 33.3821 55.5973 33.3821Z" fill="#167EE6"/>
<path d="M37.0428 49.0828C32.5311 49.0828 28.5951 46.6164 26.4811 42.9727L19.6748 46.8914C23.1381 52.8984 29.6264 56.9375 37.0428 56.9375C40.6865 56.9375 44.1154 55.9578 47.0803 54.2477V54.2391L43.1529 47.4328C41.3482 48.4812 39.2686 49.0828 37.0428 49.0828Z" fill="#12B347"/>
<path d="M47.0719 54.2477V54.2391L43.1445 47.4329C41.3484 48.4727 39.2688 49.0829 37.043 49.0829V56.9375C40.6867 56.9375 44.1156 55.9579 47.0719 54.2477Z" fill="#0F993E"/>
<path d="M24.8313 36.8711C24.8313 34.6454 25.4414 32.5657 26.4813 30.7696L19.675 26.8508C17.9563 29.7985 16.9766 33.2188 16.9766 36.8711C16.9766 40.5235 17.9563 43.9438 19.675 46.8915L26.4813 42.9727C25.4328 41.1766 24.8313 39.0969 24.8313 36.8711Z" fill="#FFD500"/>
<path d="M37.0428 24.6594C39.9818 24.6594 42.6889 25.7078 44.7943 27.4438C45.3186 27.8734 46.0748 27.8391 46.5475 27.3664L50.2514 23.6625C50.7928 23.1211 50.7498 22.2359 50.174 21.7375C46.642 18.6609 42.0443 16.8047 37.0428 16.8047C29.6264 16.8047 23.1381 20.8437 19.6748 26.8508L26.4811 30.7695C28.5951 27.1258 32.5311 24.6594 37.0428 24.6594Z" fill="#FF4B26"/>
<path d="M44.7945 27.4438C45.3188 27.8734 46.075 27.8391 46.5477 27.3664L50.2516 23.6625C50.793 23.1211 50.75 22.2359 50.1742 21.7375C46.6422 18.6609 42.0445 16.8047 37.043 16.8047V24.6594C39.982 24.6594 42.6891 25.6992 44.7945 27.4438Z" fill="#D93F21"/>
</svg>
