<svg width="50" height="50" viewBox="0 0 50 50" fill="none" xmlns="http://www.w3.org/2000/svg">
<g clip-path="url(#clip0)">
<path d="M32.3242 19.9218C32.3242 15.8832 29.0386 12.5975 25 12.5975C20.9614 12.5975 17.6758 15.8832 17.6758 19.9218C17.6758 23.9603 20.9614 27.246 25 27.246C29.0386 27.246 32.3242 23.9603 32.3242 19.9218ZM25 24.3163C22.5769 24.3163 20.6055 22.3449 20.6055 19.9218C20.6055 17.4986 22.5769 15.5272 25 15.5272C27.4231 15.5272 29.3945 17.4986 29.3945 19.9218C29.3945 22.3449 27.4231 24.3163 25 24.3163Z" fill="#FFB45C"/>
<path d="M40.3465 30.1937C43.2829 29.8922 45.5811 27.4043 45.5811 24.3895C45.5811 21.1721 42.9635 18.5546 39.7461 18.5546C36.5287 18.5546 33.9111 21.1721 33.9111 24.3895C33.9111 27.4064 36.2126 29.8958 39.152 30.1944C37.5753 30.2843 36.0595 30.7309 34.6951 31.5058C29.4603 25.8229 20.5342 25.8292 15.3051 31.5057C13.9404 30.7311 12.423 30.2844 10.8483 30.1944C13.7876 29.8957 16.089 27.4063 16.089 24.3895C16.089 21.1721 13.4714 18.5546 10.254 18.5546C7.03662 18.5546 4.41904 21.1721 4.41904 24.3895C4.41904 27.4043 6.71719 29.8922 9.65361 30.1937C4.27793 30.5057 0 34.9771 0 40.4296V44.8241C0 45.6331 0.655859 46.2889 1.46484 46.2889H11.8164C11.8164 47.0979 12.4723 47.7538 13.2812 47.7538H36.7188C37.5277 47.7538 38.1836 47.0979 38.1836 46.2889H48.5352C49.3441 46.2889 50 45.6331 50 44.8241V40.4296C50 34.9771 45.7221 30.5057 40.3465 30.1937ZM36.8408 24.3895C36.8408 22.7876 38.1441 21.4843 39.7461 21.4843C41.348 21.4843 42.6514 22.7876 42.6514 24.3895C42.6514 25.9915 41.348 27.2948 39.7461 27.2948C38.1441 27.2948 36.8408 25.9915 36.8408 24.3895ZM7.34863 24.3895C7.34863 22.7876 8.65195 21.4843 10.2539 21.4843C11.8559 21.4843 13.1592 22.7876 13.1592 24.3895C13.1592 25.9915 11.8559 27.2948 10.2539 27.2948C8.65195 27.2948 7.34863 25.9915 7.34863 24.3895ZM2.92969 43.3593V40.4296C2.92969 34.9664 8.71885 31.4423 13.5554 33.8908C11.1858 38.022 11.9685 41.548 11.8164 43.3593H2.92969ZM35.2539 44.8241H14.7461V40.4296C14.7461 34.7756 19.346 30.1757 25 30.1757C30.654 30.1757 35.2539 34.7756 35.2539 40.4296V44.8241ZM47.0703 43.3593H38.1836C38.0321 41.5557 38.8151 38.0231 36.4442 33.8901C41.2765 31.4422 47.0703 34.9643 47.0703 40.4296V43.3593Z" fill="#FFB45C"/>
<path d="M22.5483 10.6061C23.1203 11.1782 24.0478 11.1783 24.6199 10.6061L30.4793 4.74673C31.0513 4.17466 31.0513 3.24722 30.4793 2.67515C29.9073 2.10308 28.9797 2.10308 28.4077 2.67515L23.584 7.49868L21.5924 5.50718C21.0205 4.93511 20.0929 4.93511 19.5209 5.50718C18.9488 6.07925 18.9488 7.00669 19.5209 7.57876L22.5483 10.6061Z" fill="#FFB45C"/>
</g>
<defs>
<clipPath id="clip0">
<rect width="50" height="50" fill="white"/>
</clipPath>
</defs>
</svg>
