<svg width="24" height="24" viewBox="0 0 24 24" fill="none" xmlns="http://www.w3.org/2000/svg">
<path d="M23.6996 11.7189C24.1346 11.2404 24.0926 10.5071 23.6058 10.0813L12.8799 0.696113C12.393 0.270365 11.6125 0.279284 11.1359 0.716219L0.373512 10.5817C-0.103087 11.0186 -0.126479 11.7511 0.321721 12.2169L0.591549 12.498C1.0392 12.9638 1.76278 13.0194 2.20668 12.6216L3.011 11.9014V22.4466C3.011 23.0936 3.53524 23.6174 4.18177 23.6174H8.37696C9.02349 23.6174 9.54773 23.0936 9.54773 22.4466V15.0692H14.8987V22.4466C14.8894 23.0931 15.352 23.6169 15.9986 23.6169H20.4444C21.0909 23.6169 21.6152 23.0931 21.6152 22.4461V12.0498C21.6152 12.0498 21.8374 12.2445 22.1114 12.4854C22.385 12.7258 22.9596 12.533 23.3947 12.0541L23.6996 11.7189Z" fill="#795BF1"/>
</svg>
