<svg width="22" height="22" viewBox="0 0 22 22" fill="none" xmlns="http://www.w3.org/2000/svg">
<path d="M6.46875 0C2.91797 0 0 2.91406 0 6.46875V15.5312C0 19.082 2.91406 22 6.46875 22H15.5312C19.082 22 22 19.0859 22 15.5312V6.46875C22 2.91797 19.0859 0 15.5312 0H6.46875ZM6.46875 2H15.5312C18.0039 2 20 3.99609 20 6.46875V15.5312C20 18.0039 18.0039 20 15.5312 20H6.46875C3.99609 20 2 18.0039 2 15.5312V6.46875C2 3.99609 3.99609 2 6.46875 2ZM16.9062 4.1875C16.4023 4.1875 16 4.58984 16 5.09375C16 5.59766 16.4023 6 16.9062 6C17.4102 6 17.8125 5.59766 17.8125 5.09375C17.8125 4.58984 17.4102 4.1875 16.9062 4.1875ZM11 5C7.69922 5 5 7.69922 5 11C5 14.3008 7.69922 17 11 17C14.3008 17 17 14.3008 17 11C17 7.69922 14.3008 5 11 5ZM11 7C13.2227 7 15 8.77734 15 11C15 13.2227 13.2227 15 11 15C8.77734 15 7 13.2227 7 11C7 8.77734 8.77734 7 11 7Z" fill="black"/>
</svg>
