<svg width="56" height="56" viewBox="0 0 56 56" fill="none" xmlns="http://www.w3.org/2000/svg">
<path d="M52.5 40.8333C52.5 43.4105 50.4105 45.5 47.8333 45.5H8.16667C5.5895 45.5 3.5 43.4105 3.5 40.8333V15.1667C3.5 12.5895 5.5895 10.5 8.16667 10.5H47.8333C50.4105 10.5 52.5 12.5895 52.5 15.1667V40.8333Z" fill="#1565C0"/>
<path d="M14.2475 29.1025L13.1205 23.5632C13.1205 23.5632 12.6106 22.3627 11.2853 22.3627C9.95998 22.3627 6.10532 22.3627 6.10532 22.3627C6.10532 22.3627 12.7098 24.3133 14.2475 29.1025Z" fill="#FFC107"/>
<path d="M52.5 40.8333C52.5 43.4105 50.4105 45.5 47.8333 45.5H8.16667C5.5895 45.5 3.5 43.4105 3.5 40.8333V15.1667C3.5 12.5895 5.5895 10.5 8.16667 10.5H47.8333C50.4105 10.5 52.5 12.5895 52.5 15.1667V40.8333Z" fill="#3F51B5"/>
<path d="M35 16.3334C31.9058 16.3334 28.9384 17.5625 26.7504 19.7505C24.5625 21.9384 23.3333 24.9058 23.3333 28C23.3333 31.0942 24.5625 34.0617 26.7504 36.2496C28.9384 38.4375 31.9058 39.6667 35 39.6667C38.0942 39.6667 41.0617 38.4375 43.2496 36.2496C45.4375 34.0617 46.6667 31.0942 46.6667 28C46.6667 24.9058 45.4375 21.9384 43.2496 19.7505C41.0617 17.5625 38.0942 16.3334 35 16.3334Z" fill="#FFC107"/>
<path d="M25.683 35C25.1417 34.2802 24.6762 33.502 24.311 32.6667H30.5235C30.8478 31.9247 31.1022 31.1454 31.2667 30.3334H23.569C23.415 29.5797 23.3333 28.8004 23.3333 28H31.5C31.5 27.1997 31.4183 26.4204 31.2655 25.6667H23.5678C23.7335 24.8547 23.9867 24.0754 24.311 23.3334H30.5235C30.1583 22.498 29.694 21.7199 29.1515 21H25.683C26.1928 20.3234 26.768 19.691 27.4108 19.1392C25.3715 17.3939 22.7278 16.3334 19.8333 16.3334C13.3898 16.3334 8.16666 21.5565 8.16666 28C8.16666 34.4435 13.3898 39.6667 19.8333 39.6667C23.6472 39.6667 27.0223 37.8292 29.1503 35H25.683Z" fill="#FF3D00"/>
</svg>
