<svg width="24" height="24" viewBox="0 0 24 24" fill="none" xmlns="http://www.w3.org/2000/svg">
<path d="M18.9999 3H4.99988C3.29988 3 1.99988 4.3 1.99988 6V18C1.99988 19.7 3.29988 21 4.99988 21H18.9999C20.6999 21 21.9999 19.7 21.9999 18V6C21.9999 4.3 20.6999 3 18.9999 3ZM18.9999 5C19.1999 5 19.2999 5.1 19.3999 5.1L11.9999 12.6L4.49988 5.1C4.69988 5.1 4.79988 5 4.99988 5H18.9999ZM19.9999 18C19.9999 18.6 19.5999 19 18.9999 19H4.99988C4.39988 19 3.99988 18.6 3.99988 18V7.4L11.2999 14.7C11.6999 15.1 12.2999 15.1 12.6999 14.7L19.9999 7.4V18Z" fill="#A3A3A3"/>
</svg>
