<svg width="28" height="28" viewBox="0 0 28 28" fill="none" xmlns="http://www.w3.org/2000/svg">
<path d="M5.83333 16.3334C7.12199 16.3334 8.16666 15.2887 8.16666 14C8.16666 12.7114 7.12199 11.6667 5.83333 11.6667C4.54467 11.6667 3.5 12.7114 3.5 14C3.5 15.2887 4.54467 16.3334 5.83333 16.3334Z" fill="#A3A3A3"/>
<path d="M14.0001 16.3334C15.2887 16.3334 16.3334 15.2887 16.3334 14C16.3334 12.7114 15.2887 11.6667 14.0001 11.6667C12.7114 11.6667 11.6667 12.7114 11.6667 14C11.6667 15.2887 12.7114 16.3334 14.0001 16.3334Z" fill="#A3A3A3"/>
<path d="M22.1666 16.3334C23.4552 16.3334 24.4999 15.2887 24.4999 14C24.4999 12.7114 23.4552 11.6667 22.1666 11.6667C20.8779 11.6667 19.8333 12.7114 19.8333 14C19.8333 15.2887 20.8779 16.3334 22.1666 16.3334Z" fill="#A3A3A3"/>
</svg>
