<svg width="28" height="28" viewBox="0 0 28 28" fill="none" xmlns="http://www.w3.org/2000/svg">
<path d="M3.49967 15.1666H21.688L15.5047 21.3383C15.3953 21.4468 15.3085 21.5758 15.2493 21.718C15.1901 21.8601 15.1596 22.0126 15.1596 22.1666C15.1596 22.3207 15.1901 22.4731 15.2493 22.6153C15.3085 22.7575 15.3953 22.8865 15.5047 22.995C15.6131 23.1043 15.7422 23.1911 15.8843 23.2503C16.0265 23.3096 16.179 23.3401 16.333 23.3401C16.487 23.3401 16.6395 23.3096 16.7817 23.2503C16.9239 23.1911 17.0529 23.1043 17.1613 22.995L25.328 14.8283C25.4374 14.7198 25.5242 14.5908 25.5834 14.4486C25.6426 14.3065 25.6731 14.154 25.6731 14C25.6731 13.846 25.6426 13.6935 25.5834 13.5513C25.5242 13.4091 25.4374 13.2801 25.328 13.1716L17.1613 5.00497C17.0526 4.89619 16.9234 4.80991 16.7813 4.75104C16.6392 4.69217 16.4868 4.66187 16.333 4.66187C16.0223 4.66187 15.7244 4.78528 15.5047 5.00497C15.3959 5.11375 15.3096 5.24289 15.2507 5.38501C15.1919 5.52714 15.1616 5.67947 15.1616 5.83331C15.1616 6.14399 15.285 6.44195 15.5047 6.66164L21.688 12.8333H3.49967C3.19026 12.8333 2.89351 12.9562 2.67472 13.175C2.45592 13.3938 2.33301 13.6906 2.33301 14C2.33301 14.3094 2.45592 14.6061 2.67472 14.8249C2.89351 15.0437 3.19026 15.1666 3.49967 15.1666Z" fill="#795BF1"/>
</svg>
