<svg width="28" height="28" viewBox="0 0 28 28" fill="none" xmlns="http://www.w3.org/2000/svg">
<path d="M2.33301 11.6667C2.33301 14.1421 3.31634 16.516 5.06668 18.2664C6.81702 20.0167 9.19099 21 11.6663 21C13.7391 21.0026 15.7525 20.3082 17.383 19.0284L22.5047 24.1617C22.6131 24.2711 22.7422 24.3578 22.8843 24.4171C23.0265 24.4763 23.179 24.5068 23.333 24.5068C23.487 24.5068 23.6395 24.4763 23.7817 24.4171C23.9238 24.3578 24.0529 24.2711 24.1613 24.1617C24.2707 24.0532 24.3575 23.9242 24.4167 23.782C24.4759 23.6399 24.5064 23.4874 24.5064 23.3334C24.5064 23.1794 24.4759 23.0269 24.4167 22.8847C24.3575 22.7425 24.2707 22.6135 24.1613 22.505L19.028 17.3834C20.3078 15.7529 21.0022 13.7395 20.9997 11.6667C20.9997 9.19135 20.0163 6.81738 18.266 5.06704C16.5157 3.3167 14.1417 2.33337 11.6663 2.33337C9.19099 2.33337 6.81702 3.3167 5.06668 5.06704C3.31634 6.81738 2.33301 9.19135 2.33301 11.6667ZM11.6663 4.66671C13.0508 4.66671 14.4042 5.07725 15.5553 5.84642C16.7065 6.61559 17.6037 7.70884 18.1335 8.98792C18.6633 10.267 18.8019 11.6745 18.5318 13.0323C18.2617 14.3902 17.5951 15.6375 16.6161 16.6165C15.6371 17.5954 14.3898 18.2621 13.032 18.5322C11.6741 18.8023 10.2666 18.6637 8.98756 18.1339C7.70847 17.604 6.61522 16.7068 5.84605 15.5557C5.07688 14.4046 4.66634 13.0512 4.66634 11.6667C4.66634 9.81019 5.40384 8.02971 6.71659 6.71696C8.02935 5.40421 9.80982 4.66671 11.6663 4.66671Z" fill="#464255"/>
</svg>
