<svg width="24" height="24" viewBox="0 0 24 24" fill="none" xmlns="http://www.w3.org/2000/svg">
<g opacity="0.3" clip-path="url(#clip0)">
<path d="M12.015 7C9.25793 7 7.01489 9.24304 7.01489 12.0001C7.01489 14.7571 9.25793 17.0001 12.015 17.0001C14.7718 17.0001 17.0148 14.7571 17.0148 12.0001C17.0148 9.24304 14.7718 7 12.015 7ZM12.015 15.5001C10.0848 15.5001 8.51489 13.93 8.51489 12.0001C8.51489 10.0701 10.0848 8.5 12.015 8.5C13.9449 8.5 15.5148 10.0701 15.5148 12.0001C15.5148 13.93 13.9449 15.5001 12.015 15.5001Z" fill="black"/>
<path d="M13.6783 0H10.3522C9.5522 0 8.84523 0.567993 8.67128 1.35095L8.25032 3.22302C7.56422 3.51398 6.91017 3.89392 6.29622 4.35791L4.47322 3.78204C3.69117 3.53906 2.8412 3.87103 2.44917 4.57104L0.791334 7.43793C0.394178 8.14801 0.528211 9.02197 1.11232 9.57202L2.52516 10.871C2.48231 11.252 2.46126 11.6299 2.46126 12C2.46126 12.3701 2.48231 12.748 2.52424 13.129L1.11928 14.4219C0.528211 14.978 0.393262 15.852 0.786207 16.5529L2.4543 19.4379C2.8412 20.1301 3.69319 20.4589 4.47029 20.22L6.29622 19.643C6.91017 20.107 7.56422 20.4869 8.25032 20.7781L8.67219 22.652C8.84523 23.432 9.5522 24 10.3522 24H13.6783C14.4783 24 15.1853 23.432 15.3592 22.649L15.7802 20.777C16.4663 20.486 17.1203 20.1061 17.7343 19.6421L19.5573 20.218C20.3413 20.4589 21.1893 20.129 21.5813 19.429L23.2393 16.5621C23.6363 15.852 23.5023 14.978 22.9182 14.428L21.5053 13.129C21.5473 12.748 21.5683 12.369 21.5683 12C21.5683 11.631 21.5473 11.252 21.5053 10.871L22.9112 9.57898C22.9132 9.57697 22.9152 9.57495 22.9182 9.57294C23.5023 9.02307 23.6372 8.14893 23.2443 7.448L21.5762 4.56299C21.1893 3.87103 20.3393 3.53998 19.5593 3.78204L17.7332 4.35901C17.1192 3.89502 16.4652 3.51508 15.7792 3.22394L15.3572 1.35004C15.1853 0.567993 14.4783 0 13.6783 0ZM6.44929 5.94104C6.62123 5.94104 6.79023 5.88208 6.92628 5.77002C7.61329 5.20496 8.36219 4.76898 9.15522 4.47693C9.39418 4.38904 9.57124 4.18597 9.62727 3.93805L10.1363 1.67798C10.1592 1.57397 10.2502 1.5 10.3533 1.5H13.6792C13.7823 1.5 13.8733 1.57397 13.8953 1.67596L14.4052 3.93805C14.4613 4.18597 14.6383 4.38904 14.8773 4.47693C15.6692 4.76898 16.4192 5.20496 17.1062 5.77002C17.3023 5.93207 17.5662 5.98407 17.8093 5.90698L20.0103 5.21191C20.1152 5.17896 20.2272 5.21796 20.2752 5.30402L21.9433 8.18903C21.9933 8.27802 21.9752 8.39996 21.8953 8.47797L20.2073 10.03C20.0242 10.1981 19.9363 10.4471 19.9733 10.693C20.0392 11.1359 20.0723 11.5759 20.0723 12.0009C20.0723 12.4261 20.0392 12.8661 19.9733 13.309C19.9363 13.5549 20.0242 13.803 20.2073 13.972L21.8992 15.5281C21.9752 15.5989 21.9933 15.7231 21.9382 15.822L20.2802 18.689C20.2263 18.7841 20.1123 18.822 20.0082 18.789L17.8103 18.095C17.5682 18.0179 17.3043 18.0699 17.1073 18.232C16.4203 18.7971 15.6712 19.233 14.8782 19.5251C14.6392 19.613 14.4622 19.816 14.4063 20.064L13.8973 22.324C13.8722 22.426 13.7812 22.5 13.6783 22.5H10.3522C10.2493 22.5 10.1583 22.426 10.1363 22.324L9.62617 20.062C9.57032 19.814 9.39326 19.6121 9.15431 19.5231C8.36219 19.231 7.61219 18.795 6.92628 18.23C6.72926 18.0679 6.46321 18.017 6.22334 18.093L4.02223 18.7881C3.91932 18.8199 3.80525 18.782 3.75728 18.696L2.08918 15.8121C2.0392 15.722 2.05732 15.598 2.14027 15.52L3.82631 13.9709C4.00923 13.803 4.0973 13.554 4.06032 13.3079C3.99421 12.865 3.96126 12.425 3.96126 12C3.96126 11.575 3.99421 11.135 4.06032 10.6921C4.0973 10.446 4.00923 10.1981 3.82631 10.0291L2.13423 8.47302C2.05824 8.40198 2.0403 8.27802 2.09523 8.17896L3.75325 5.31207C3.80616 5.21704 3.92024 5.18005 4.02516 5.21191L6.22334 5.90607C6.29731 5.93005 6.3733 5.94104 6.44929 5.94104Z" fill="black"/>
</g>
<defs>
<clipPath id="clip0">
<rect width="24" height="24" fill="white" transform="matrix(1 0 0 -1 0.000244141 24)"/>
</clipPath>
</defs>
</svg>
