<svg width="24" height="24" viewBox="0 0 24 24" fill="none" xmlns="http://www.w3.org/2000/svg">
<path d="M8.71 8.71C8.80268 8.61656 8.87601 8.50574 8.92577 8.38391C8.97554 8.26207 9.00076 8.13161 9 8V4C9 3.73478 8.89464 3.48043 8.70711 3.29289C8.51957 3.10536 8.26522 3 8 3H4C3.73478 3 3.48043 3.10536 3.29289 3.29289C3.10536 3.48043 3 3.73478 3 4C3 8.50868 4.79107 12.8327 7.97918 16.0208C11.1673 19.2089 15.4913 21 20 21C20.2652 21 20.5196 20.8946 20.7071 20.7071C20.8946 20.5196 21 20.2652 21 20V16C21 15.7348 20.8946 15.4804 20.7071 15.2929C20.5196 15.1054 20.2652 15 20 15H16C15.8684 14.9992 15.7379 15.0245 15.6161 15.0742C15.4943 15.124 15.3834 15.1973 15.29 15.29L13.29 17.29L13.22 17.38C10.3798 15.93 8.07003 13.6202 6.62 10.78L6.71 10.71L8.71 8.71ZM16.41 17H19V19C17.7058 18.912 16.4285 18.6566 15.2 18.24L16.41 17ZM5.79 8.8C5.36321 7.57289 5.09766 6.29553 5 5H7V7.59L5.79 8.8Z" fill="#A3A3A3"/>
</svg>
