<svg width="30" height="30" viewBox="0 0 30 30" fill="none" xmlns="http://www.w3.org/2000/svg">
<path d="M5.36218 24.6375C5.47838 24.7546 5.61663 24.8476 5.76896 24.9111C5.92128 24.9745 6.08466 25.0072 6.24968 25.0072C6.41469 25.0072 6.57808 24.9745 6.7304 24.9111C6.88272 24.8476 7.02098 24.7546 7.13718 24.6375L14.9997 16.7625L22.8622 24.6375C22.9784 24.7546 23.1166 24.8476 23.269 24.9111C23.4213 24.9745 23.5847 25.0072 23.7497 25.0072C23.9147 25.0072 24.0781 24.9745 24.2304 24.9111C24.3827 24.8476 24.521 24.7546 24.6372 24.6375C24.7543 24.5212 24.8473 24.383 24.9108 24.2307C24.9743 24.0784 25.0069 23.915 25.0069 23.75C25.0069 23.5849 24.9743 23.4216 24.9108 23.2692C24.8473 23.1169 24.7543 22.9787 24.6372 22.8625L16.7622 15L24.6372 7.13746C24.8726 6.90208 25.0048 6.58283 25.0048 6.24996C25.0048 5.91708 24.8726 5.59784 24.6372 5.36246C24.4018 5.12708 24.0826 4.99484 23.7497 4.99484C23.4168 4.99484 23.0976 5.12708 22.8622 5.36246L14.9997 13.2375L7.13718 5.36246C6.9018 5.12708 6.58256 4.99484 6.24968 4.99484C5.9168 4.99484 5.59756 5.12708 5.36218 5.36246C5.1268 5.59784 4.99457 5.91708 4.99457 6.24996C4.99457 6.58283 5.1268 6.90208 5.36218 7.13746L13.2372 15L5.36218 22.8625C5.24502 22.9787 5.15203 23.1169 5.08857 23.2692C5.0251 23.4216 4.99243 23.5849 4.99243 23.75C4.99243 23.915 5.0251 24.0784 5.08857 24.2307C5.15203 24.383 5.24502 24.5212 5.36218 24.6375Z" fill="white"/>
</svg>
