<svg width="28" height="28" viewBox="0 0 28 28" fill="none" xmlns="http://www.w3.org/2000/svg">
<path d="M22.232 2.24H5.76799C3.76879 2.24 2.23999 3.7688 2.23999 5.768V22.232C2.23999 24.2312 3.76879 25.76 5.76799 25.76H22.232C24.2312 25.76 25.76 24.2312 25.76 22.232V5.768C25.76 3.7688 24.2312 2.24 22.232 2.24ZM23.408 22.232C23.408 22.9376 22.9376 23.408 22.232 23.408H5.76799C5.06239 23.408 4.59199 22.9376 4.59199 22.232V5.768C4.59199 5.0624 5.06239 4.592 5.76799 4.592H22.232C22.9376 4.592 23.408 5.0624 23.408 5.768V22.232Z" fill="#A3A3A3"/>
</svg>
