<svg width="56" height="56" viewBox="0 0 56 56" fill="none" xmlns="http://www.w3.org/2000/svg">
<path d="M52.5 40.8333C52.5 43.4105 50.4105 45.5 47.8333 45.5H8.16667C5.5895 45.5 3.5 43.4105 3.5 40.8333V15.1667C3.5 12.5895 5.5895 10.5 8.16667 10.5H47.8333C50.4105 10.5 52.5 12.5895 52.5 15.1667V40.8333Z" fill="#1565C0"/>
<path d="M17.717 22.1667L14.6533 31.304C14.6533 31.304 13.8752 27.4389 13.7982 26.9535C12.054 22.974 9.48035 23.1957 9.48035 23.1957L12.5137 35V34.9977H16.2015L21.301 22.1667H17.717ZM20.6372 35H23.9867L26.012 22.1667H22.6205L20.6372 35ZM44.3427 22.1667H40.8182L35.3232 35H38.6505L39.3365 33.1672H43.5319L43.8889 35H46.9374L44.3427 22.1667ZM40.2652 30.716L42.0887 25.8662L43.043 30.716H40.2652ZM30.7639 25.907C30.7639 25.2 31.3449 24.6739 33.0109 24.6739C34.0935 24.6739 35.3337 25.4602 35.3337 25.4602L35.8774 22.7664C35.8774 22.7664 34.293 22.1655 32.7379 22.1655C29.2157 22.1655 27.3992 23.8502 27.3992 25.9829C27.3992 29.8399 32.0414 29.3114 32.0414 31.2924C32.0414 31.6319 31.7719 32.417 29.8387 32.417C27.8997 32.417 26.6199 31.7065 26.6199 31.7065L26.0424 34.2919C26.0424 34.2919 27.2825 34.9989 29.6789 34.9989C32.081 34.9989 35.413 33.2022 35.413 30.6215C35.413 27.517 30.7639 27.293 30.7639 25.907Z" fill="white"/>
<path d="M14.2475 29.1025L13.1205 23.5632C13.1205 23.5632 12.6106 22.3627 11.2853 22.3627C9.95998 22.3627 6.10532 22.3627 6.10532 22.3627C6.10532 22.3627 12.7098 24.3133 14.2475 29.1025Z" fill="#FFC107"/>
</svg>
