<svg width="50" height="50" viewBox="0 0 50 50" fill="none" xmlns="http://www.w3.org/2000/svg">
<path d="M44.8339 26.822V20.3712C44.8339 18.2528 43.1106 16.5294 40.9921 16.5294H25.6866C25.86 15.8846 25.9502 15.2146 25.9502 14.5304C25.9502 13.8807 25.8682 13.25 25.7154 12.6471C27.1218 14.2853 29.2055 15.3261 31.529 15.3261C35.7543 15.3261 39.192 11.8886 39.192 7.66307C39.192 3.43759 35.7543 0 31.5289 0C27.3034 0 23.8658 3.43759 23.8658 7.66307C23.8658 8.31278 23.9477 8.94363 24.1006 9.54637C22.6941 7.90819 20.6104 6.86737 18.287 6.86737C14.0616 6.86737 10.624 10.3051 10.624 14.5304C10.624 15.2145 10.7141 15.8844 10.8876 16.5294H5.86806C3.7497 16.5294 2.02637 18.2527 2.02637 20.3712V46.1582C2.02637 48.2766 3.7497 49.9999 5.86806 49.9999H40.9921C43.1105 49.9999 44.8339 48.2766 44.8339 46.1582V39.7073C46.599 39.5011 47.9734 37.9974 47.9734 36.178V30.3516C47.9735 28.5319 46.599 27.0282 44.8339 26.822ZM31.5289 3.23134C33.9725 3.23134 35.9606 5.21942 35.9606 7.66307C35.9606 10.1067 33.9725 12.0948 31.5289 12.0948C29.0852 12.0948 27.0971 10.1067 27.0971 7.66307C27.0971 5.21942 29.0852 3.23134 31.5289 3.23134ZM18.2871 10.0986C20.7307 10.0986 22.7188 12.0867 22.7188 14.5303C22.7188 15.235 22.5564 15.9143 22.2443 16.5293H14.3299C14.0179 15.9142 13.8554 15.235 13.8554 14.5303C13.8555 12.0868 15.8434 10.0986 18.2871 10.0986ZM41.6026 46.1581C41.6026 46.4947 41.3287 46.7685 40.992 46.7685H5.86796C5.53134 46.7685 5.25761 46.4946 5.25761 46.1581V20.3711C5.25761 20.0344 5.53144 19.7605 5.86796 19.7605C6.56454 19.7605 40.1528 19.7605 40.992 19.7605C41.3286 19.7605 41.6026 20.0343 41.6026 20.3711V26.797C40.5974 26.797 31.2088 26.797 30.2009 26.797C28.3045 26.797 26.7615 28.34 26.7615 30.2365C26.7615 31.5868 26.7615 35.7935 26.7615 36.2928C26.7615 38.1893 28.3045 39.7322 30.2009 39.7322C31.2087 39.7322 40.5974 39.7322 41.6026 39.7322V46.1581ZM44.7421 36.1778C44.7421 36.3559 44.5973 36.5008 44.4191 36.5008C43.909 36.5008 31.0223 36.5008 30.316 36.5008C30.1378 36.5008 29.9928 36.356 29.9928 36.1778V30.3514C29.9928 30.1733 30.1378 30.0284 30.316 30.0284C31.038 30.0284 43.9185 30.0284 44.4191 30.0284C44.5972 30.0284 44.7421 30.1733 44.7421 30.3514V36.1778Z" fill="#03C977"/>
<path d="M33.2183 35.405C34.4005 35.405 35.3589 34.4466 35.3589 33.2644C35.3589 32.0822 34.4005 31.1238 33.2183 31.1238C32.036 31.1238 31.0776 32.0822 31.0776 33.2644C31.0776 34.4466 32.036 35.405 33.2183 35.405Z" fill="#03C977"/>
</svg>
