<svg width="50" height="50" viewBox="0 0 50 50" fill="none" xmlns="http://www.w3.org/2000/svg">
<path d="M44.8341 26.822V20.3712C44.8341 18.2528 43.1108 16.5294 40.9923 16.5294H25.6868C25.8602 15.8846 25.9503 15.2146 25.9503 14.5304C25.9503 13.8807 25.8684 13.25 25.7156 12.6471C27.122 14.2853 29.2057 15.3261 31.5291 15.3261C35.7545 15.3261 39.1922 11.8886 39.1922 7.66307C39.1922 3.43759 35.7545 0 31.529 0C27.3036 0 23.866 3.43759 23.866 7.66307C23.866 8.31278 23.9479 8.94363 24.1007 9.54637C22.6943 7.90819 20.6106 6.86737 18.2872 6.86737C14.0618 6.86737 10.6242 10.3051 10.6242 14.5304C10.6242 15.2145 10.7143 15.8844 10.8878 16.5294H5.86824C3.74989 16.5294 2.02655 18.2527 2.02655 20.3712V46.1582C2.02655 48.2766 3.74989 49.9999 5.86824 49.9999H40.9923C43.1107 49.9999 44.8341 48.2766 44.8341 46.1582V39.7073C46.5991 39.5011 47.9735 37.9974 47.9735 36.178V30.3516C47.9736 28.5319 46.5991 27.0282 44.8341 26.822ZM31.529 3.23134C33.9727 3.23134 35.9608 5.21942 35.9608 7.66307C35.9608 10.1067 33.9727 12.0948 31.529 12.0948C29.0854 12.0948 27.0973 10.1067 27.0973 7.66307C27.0973 5.21942 29.0854 3.23134 31.529 3.23134ZM18.2873 10.0986C20.7309 10.0986 22.719 12.0867 22.719 14.5303C22.719 15.235 22.5566 15.9143 22.2445 16.5293H14.33C14.018 15.9142 13.8555 15.235 13.8555 14.5303C13.8556 12.0868 15.8436 10.0986 18.2873 10.0986ZM41.6028 46.1581C41.6028 46.4947 41.3289 46.7685 40.9922 46.7685H5.86815C5.53153 46.7685 5.2578 46.4946 5.2578 46.1581V20.3711C5.2578 20.0344 5.53162 19.7605 5.86815 19.7605C6.56473 19.7605 40.153 19.7605 40.9922 19.7605C41.3288 19.7605 41.6028 20.0343 41.6028 20.3711V26.797C40.5976 26.797 31.209 26.797 30.2011 26.797C28.3046 26.797 26.7617 28.34 26.7617 30.2365C26.7617 31.5868 26.7617 35.7935 26.7617 36.2928C26.7617 38.1893 28.3046 39.7322 30.2011 39.7322C31.2089 39.7322 40.5976 39.7322 41.6028 39.7322V46.1581ZM44.7423 36.1778C44.7423 36.3559 44.5975 36.5008 44.4193 36.5008C43.9092 36.5008 31.0225 36.5008 30.3162 36.5008C30.138 36.5008 29.993 36.356 29.993 36.1778V30.3514C29.993 30.1733 30.138 30.0284 30.3162 30.0284C31.0382 30.0284 43.9187 30.0284 44.4193 30.0284C44.5974 30.0284 44.7423 30.1733 44.7423 30.3514V36.1778Z" fill="#03C977"/>
<path d="M33.2181 35.405C34.4003 35.405 35.3587 34.4466 35.3587 33.2644C35.3587 32.0822 34.4003 31.1238 33.2181 31.1238C32.0359 31.1238 31.0775 32.0822 31.0775 33.2644C31.0775 34.4466 32.0359 35.405 33.2181 35.405Z" fill="#03C977"/>
</svg>
