<svg xmlns="http://www.w3.org/2000/svg" width="48" height="32"><defs><linearGradient id="a" x1="0%" x2="100%" y1="54.583%" y2="45.687%"><stop offset="0%" stop-color="#222357"/><stop offset="100%" stop-color="#012A9E"/></linearGradient></defs><g fill="none" fill-rule="evenodd"><rect width="47" height="31" x=".5" y=".5" fill="#FFF" stroke="#8C8C8C" rx="1.977"/><path d="M16.55 3.097C16.564 1.274 18.362 0 20.918 0c.996 0 1.797.204 2.42.416l-.455 1.987c-1.158-.5-2.18-.465-2.55-.42-.747.092-1.088.45-1.097.784-.025 1.106 3.634 1.243 3.624 3.715-.01 1.949-1.786 3.206-4.502 3.206-1.157-.01-2.272-.237-2.875-.498l.468-2.053c.6.263 1.356.611 2.655.592.745-.01 1.54-.288 1.548-.917.004-.41-.334-.705-1.341-1.165-.98-.447-2.282-1.2-2.263-2.55zM27.705.171h2.208L32 9.541h-2.392l-.313-1.398H25.98l-.54 1.399h-2.714l3.88-8.683c.186-.417.604-.688 1.1-.688zm.38 2.532L26.722 6.22h2.144l-.783-3.518zM13.26.17h2.584l-2.138 9.37h-2.585L13.26.172zm-3.826 0h2.716L7.96 9.54H5.227L3.165 2.065c-.125-.46-.233-.63-.614-.824C1.93.923.903.627 0 .443L.061.171h4.4c.56 0 1.065.35 1.193.955L6.743 6.55 9.434.171z" fill="url(#a)" transform="translate(7 11)"/></g></svg>